<svg width="221" height="64" viewBox="0 0 221 64" fill="none" xmlns="http://www.w3.org/2000/svg">
<path d="M23.04 43.2C20.8249 43.2 18.6594 42.5431 16.8176 41.3125C14.9758 40.0818 13.5403 38.3326 12.6926 36.2861C11.8448 34.2395 11.6231 31.9876 12.0552 29.815C12.4874 27.6424 13.5541 25.6467 15.1204 24.0804C16.6868 22.5141 18.6824 21.4474 20.855 21.0152C23.0276 20.583 25.2795 20.8048 27.3261 21.6525C29.3726 22.5002 31.1218 23.9358 32.3525 25.7776C33.5831 27.6194 34.24 29.7848 34.24 32C34.2364 34.9693 33.0553 37.816 30.9557 39.9157C28.856 42.0153 26.0093 43.1964 23.04 43.2V43.2ZM23.04 25.28C21.7109 25.28 20.4117 25.6741 19.3066 26.4125C18.2015 27.1509 17.3402 28.2004 16.8315 29.4284C16.3229 30.6563 16.1898 32.0075 16.4491 33.311C16.7084 34.6146 17.3484 35.8119 18.2882 36.7518C19.2281 37.6916 20.4254 38.3316 21.729 38.5909C23.0325 38.8502 24.3837 38.7171 25.6116 38.2085C26.8396 37.6998 27.8891 36.8385 28.6275 35.7334C29.3659 34.6283 29.76 33.3291 29.76 32C29.7582 30.2183 29.0497 28.5101 27.7898 27.2502C26.5299 25.9903 24.8217 25.2818 23.04 25.28V25.28Z" fill="white"/>
<path d="M37.9405 5.88768L33.064 11.519L29.919 15.1501L33.7606 18.0352C35.9972 19.6931 37.813 21.8531 39.0619 24.3412C40.3109 26.8293 40.9579 29.576 40.9511 32.36L40.9533 32.4899L40.9578 32.5818C40.9981 33.5494 41.4976 55.2304 8.13281 58.839L13.016 53.201L16.161 49.5699L12.3194 46.6848C10.0829 45.0269 8.26701 42.8669 7.01809 40.3788C5.76916 37.8907 5.12208 35.144 5.12897 32.36L5.12673 32.2301L5.12001 32.1382C5.07969 31.1728 4.58241 9.52768 37.9383 5.88768H37.9405ZM43.1955 1L43.0835 1.00224C-1.03103 3.0496 0.651209 32.36 0.651209 32.36C0.651195 35.8383 1.46322 39.2685 3.02263 42.3776C4.58205 45.4867 6.84578 48.1888 9.63361 50.2688L1.17313 60.0352C0.901537 60.3626 0.728359 60.7603 0.673695 61.1821C0.619031 61.604 0.685122 62.0327 0.864299 62.4184C1.04347 62.8042 1.32839 63.1313 1.68597 63.3617C2.04355 63.5921 2.45913 63.7163 2.88449 63.72L2.99649 63.7178C47.1133 61.6704 45.4288 32.36 45.4288 32.36C45.4289 28.882 44.6172 25.4519 43.0582 22.3428C41.4991 19.2338 39.2359 16.5315 36.4487 14.4512L44.9069 4.6848C45.1785 4.35742 45.3517 3.95973 45.4063 3.53789C45.461 3.11605 45.3949 2.68735 45.2157 2.30156C45.0365 1.91577 44.7516 1.5887 44.3941 1.35832C44.0365 1.12794 43.6209 1.00369 43.1955 1V1Z" fill="white"/>
<path d="M73.264 13.17C73.264 14.562 72.784 15.722 71.824 16.65C70.88 17.562 69.432 18.018 67.48 18.018H64.264V25.002H62.08V8.27399H67.48C69.368 8.27399 70.8 8.72999 71.776 9.64199C72.768 10.554 73.264 11.73 73.264 13.17ZM67.48 16.218C68.696 16.218 69.592 15.954 70.168 15.426C70.744 14.898 71.032 14.146 71.032 13.17C71.032 11.106 69.848 10.074 67.48 10.074H64.264V16.218H67.48Z" fill="white"/>
<path d="M87.9785 17.922C87.9785 18.338 87.9545 18.778 87.9065 19.242H77.3945C77.4745 20.538 77.9145 21.554 78.7145 22.29C79.5305 23.01 80.5145 23.37 81.6665 23.37C82.6105 23.37 83.3945 23.154 84.0185 22.722C84.6585 22.274 85.1065 21.682 85.3625 20.946H87.7145C87.3625 22.21 86.6585 23.242 85.6025 24.042C84.5465 24.826 83.2345 25.218 81.6665 25.218C80.4185 25.218 79.2985 24.938 78.3065 24.378C77.3305 23.818 76.5625 23.026 76.0025 22.002C75.4425 20.962 75.1625 19.762 75.1625 18.402C75.1625 17.042 75.4345 15.85 75.9785 14.826C76.5225 13.802 77.2825 13.018 78.2585 12.474C79.2505 11.914 80.3865 11.634 81.6665 11.634C82.9145 11.634 84.0185 11.906 84.9785 12.45C85.9385 12.994 86.6745 13.746 87.1865 14.706C87.7145 15.65 87.9785 16.722 87.9785 17.922ZM85.7225 17.466C85.7225 16.634 85.5385 15.922 85.1705 15.33C84.8025 14.722 84.2985 14.266 83.6585 13.962C83.0345 13.642 82.3385 13.482 81.5705 13.482C80.4665 13.482 79.5225 13.834 78.7385 14.538C77.9705 15.242 77.5305 16.218 77.4185 17.466H85.7225Z" fill="white"/>
<path d="M93.5253 13.65V21.402C93.5253 22.042 93.6613 22.498 93.9333 22.77C94.2053 23.026 94.6773 23.154 95.3493 23.154H96.9573V25.002H94.9893C93.7733 25.002 92.8613 24.722 92.2533 24.162C91.6453 23.602 91.3413 22.682 91.3413 21.402V13.65H89.6373V11.85H91.3413V8.53799H93.5253V11.85H96.9573V13.65H93.5253Z" fill="white"/>
<path d="M98.7875 18.378C98.7875 17.034 99.0595 15.858 99.6035 14.85C100.147 13.826 100.891 13.034 101.835 12.474C102.795 11.914 103.859 11.634 105.027 11.634C106.179 11.634 107.179 11.882 108.027 12.378C108.875 12.874 109.507 13.498 109.923 14.25V11.85H112.131V25.002H109.923V22.554C109.491 23.322 108.843 23.962 107.979 24.474C107.131 24.97 106.139 25.218 105.003 25.218C103.835 25.218 102.779 24.93 101.835 24.354C100.891 23.778 100.147 22.97 99.6035 21.93C99.0595 20.89 98.7875 19.706 98.7875 18.378ZM109.923 18.402C109.923 17.41 109.723 16.546 109.323 15.81C108.923 15.074 108.379 14.514 107.691 14.13C107.019 13.73 106.275 13.53 105.459 13.53C104.643 13.53 103.899 13.722 103.227 14.106C102.555 14.49 102.019 15.05 101.619 15.786C101.219 16.522 101.019 17.386 101.019 18.378C101.019 19.386 101.219 20.266 101.619 21.018C102.019 21.754 102.555 22.322 103.227 22.722C103.899 23.106 104.643 23.298 105.459 23.298C106.275 23.298 107.019 23.106 107.691 22.722C108.379 22.322 108.923 21.754 109.323 21.018C109.723 20.266 109.923 19.394 109.923 18.402Z" fill="white"/>
<path d="M76.336 42.514C77.752 42.778 78.916 43.486 79.828 44.638C80.74 45.79 81.196 47.11 81.196 48.598C81.196 49.942 80.86 51.13 80.188 52.162C79.54 53.17 78.592 53.962 77.344 54.538C76.096 55.114 74.62 55.402 72.916 55.402H62.08V30.274H72.448C74.152 30.274 75.616 30.55 76.84 31.102C78.088 31.654 79.024 32.422 79.648 33.406C80.296 34.39 80.62 35.506 80.62 36.754C80.62 38.218 80.224 39.442 79.432 40.426C78.664 41.41 77.632 42.106 76.336 42.514ZM67.12 40.642H71.728C72.928 40.642 73.852 40.378 74.5 39.85C75.148 39.298 75.472 38.518 75.472 37.51C75.472 36.502 75.148 35.722 74.5 35.17C73.852 34.618 72.928 34.342 71.728 34.342H67.12V40.642ZM72.196 51.298C73.42 51.298 74.368 51.01 75.04 50.434C75.736 49.858 76.084 49.042 76.084 47.986C76.084 46.906 75.724 46.066 75.004 45.466C74.284 44.842 73.312 44.53 72.088 44.53H67.12V51.298H72.196Z" fill="white"/>
<path d="M103.753 44.998C103.753 45.718 103.705 46.366 103.609 46.942H89.0288C89.1488 48.382 89.6528 49.51 90.5408 50.326C91.4288 51.142 92.5208 51.55 93.8168 51.55C95.6888 51.55 97.0208 50.746 97.8128 49.138H103.249C102.673 51.058 101.569 52.642 99.9368 53.89C98.3048 55.114 96.3008 55.726 93.9248 55.726C92.0048 55.726 90.2768 55.306 88.7408 54.466C87.2288 53.602 86.0408 52.39 85.1768 50.83C84.3368 49.27 83.9168 47.47 83.9168 45.43C83.9168 43.366 84.3368 41.554 85.1768 39.994C86.0168 38.434 87.1928 37.234 88.7048 36.394C90.2168 35.554 91.9568 35.134 93.9248 35.134C95.8208 35.134 97.5128 35.542 99.0008 36.358C100.513 37.174 101.677 38.338 102.493 39.85C103.333 41.338 103.753 43.054 103.753 44.998ZM98.5328 43.558C98.5088 42.262 98.0408 41.23 97.1288 40.462C96.2168 39.67 95.1008 39.274 93.7808 39.274C92.5328 39.274 91.4768 39.658 90.6128 40.426C89.7728 41.17 89.2568 42.214 89.0648 43.558H98.5328Z" fill="white"/>
<path d="M118.484 35.17C120.86 35.17 122.78 35.926 124.244 37.438C125.708 38.926 126.44 41.014 126.44 43.702V55.402H121.4V44.386C121.4 42.802 121.004 41.59 120.212 40.75C119.42 39.886 118.34 39.454 116.972 39.454C115.58 39.454 114.476 39.886 113.66 40.75C112.868 41.59 112.472 42.802 112.472 44.386V55.402H107.432V35.458H112.472V37.942C113.144 37.078 113.996 36.406 115.028 35.926C116.084 35.422 117.236 35.17 118.484 35.17Z" fill="white"/>
<path d="M129.936 45.43C129.936 43.366 130.356 41.566 131.196 40.03C132.036 38.47 133.2 37.27 134.688 36.43C136.176 35.566 137.88 35.134 139.8 35.134C142.272 35.134 144.312 35.758 145.92 37.006C147.552 38.23 148.644 39.958 149.196 42.19H143.76C143.472 41.326 142.98 40.654 142.284 40.174C141.612 39.67 140.772 39.418 139.764 39.418C138.324 39.418 137.184 39.946 136.344 41.002C135.504 42.034 135.084 43.51 135.084 45.43C135.084 47.326 135.504 48.802 136.344 49.858C137.184 50.89 138.324 51.406 139.764 51.406C141.804 51.406 143.136 50.494 143.76 48.67H149.196C148.644 50.83 147.552 52.546 145.92 53.818C144.288 55.09 142.248 55.726 139.8 55.726C137.88 55.726 136.176 55.306 134.688 54.466C133.2 53.602 132.036 52.402 131.196 50.866C130.356 49.306 129.936 47.494 129.936 45.43Z" fill="white"/>
<path d="M151.593 45.358C151.593 43.342 151.989 41.554 152.781 39.994C153.597 38.434 154.689 37.234 156.057 36.394C157.449 35.554 158.997 35.134 160.701 35.134C162.189 35.134 163.485 35.434 164.589 36.034C165.717 36.634 166.617 37.39 167.289 38.302V35.458H172.365V55.402H167.289V52.486C166.641 53.422 165.741 54.202 164.589 54.826C163.461 55.426 162.153 55.726 160.665 55.726C158.985 55.726 157.449 55.294 156.057 54.43C154.689 53.566 153.597 52.354 152.781 50.794C151.989 49.21 151.593 47.398 151.593 45.358ZM167.289 45.43C167.289 44.206 167.049 43.162 166.569 42.298C166.089 41.41 165.441 40.738 164.625 40.282C163.809 39.802 162.933 39.562 161.997 39.562C161.061 39.562 160.197 39.79 159.405 40.246C158.613 40.702 157.965 41.374 157.461 42.262C156.981 43.126 156.741 44.158 156.741 45.358C156.741 46.558 156.981 47.614 157.461 48.526C157.965 49.414 158.613 50.098 159.405 50.578C160.221 51.058 161.085 51.298 161.997 51.298C162.933 51.298 163.809 51.07 164.625 50.614C165.441 50.134 166.089 49.462 166.569 48.598C167.049 47.71 167.289 46.654 167.289 45.43Z" fill="white"/>
<path d="M188.339 35.17C190.715 35.17 192.635 35.926 194.099 37.438C195.563 38.926 196.295 41.014 196.295 43.702V55.402H191.255V44.386C191.255 42.802 190.859 41.59 190.067 40.75C189.275 39.886 188.195 39.454 186.827 39.454C185.435 39.454 184.331 39.886 183.515 40.75C182.723 41.59 182.327 42.802 182.327 44.386V55.402H177.287V35.458H182.327V37.942C182.999 37.078 183.851 36.406 184.883 35.926C185.939 35.422 187.091 35.17 188.339 35.17Z" fill="white"/>
<path d="M199.792 45.358C199.792 43.342 200.188 41.554 200.98 39.994C201.796 38.434 202.888 37.234 204.256 36.394C205.648 35.554 207.196 35.134 208.9 35.134C210.388 35.134 211.684 35.434 212.788 36.034C213.916 36.634 214.816 37.39 215.488 38.302V35.458H220.564V55.402H215.488V52.486C214.84 53.422 213.94 54.202 212.788 54.826C211.66 55.426 210.352 55.726 208.864 55.726C207.184 55.726 205.648 55.294 204.256 54.43C202.888 53.566 201.796 52.354 200.98 50.794C200.188 49.21 199.792 47.398 199.792 45.358ZM215.488 45.43C215.488 44.206 215.248 43.162 214.768 42.298C214.288 41.41 213.64 40.738 212.824 40.282C212.008 39.802 211.132 39.562 210.196 39.562C209.26 39.562 208.396 39.79 207.604 40.246C206.812 40.702 206.164 41.374 205.66 42.262C205.18 43.126 204.94 44.158 204.94 45.358C204.94 46.558 205.18 47.614 205.66 48.526C206.164 49.414 206.812 50.098 207.604 50.578C208.42 51.058 209.284 51.298 210.196 51.298C211.132 51.298 212.008 51.07 212.824 50.614C213.64 50.134 214.288 49.462 214.768 48.598C215.248 47.71 215.488 46.654 215.488 45.43Z" fill="white"/>
</svg>
